<?xml version="1.0" encoding="UTF-8" standalone="no"?>
<svg
   width="16.93236mm"
   height="17.583189mm"
   viewBox="0 0 16.93236 17.583189"
   version="1.1"
   id="svg1319"
   sodipodi:docname="omex_logo_final_small7.svg"
   inkscape:version="1.4.2 (ebf0e940, 2025-05-08)"
   xmlns:inkscape="http://www.inkscape.org/namespaces/inkscape"
   xmlns:sodipodi="http://sodipodi.sourceforge.net/DTD/sodipodi-0.dtd"
   xmlns:xlink="http://www.w3.org/1999/xlink"
   xmlns="http://www.w3.org/2000/svg"
   xmlns:svg="http://www.w3.org/2000/svg"
   xmlns:rdf="http://www.w3.org/1999/02/22-rdf-syntax-ns#"
   xmlns:cc="http://creativecommons.org/ns#"
   xmlns:dc="http://purl.org/dc/elements/1.1/">
  <sodipodi:namedview
     id="namedview1"
     pagecolor="#ffffff"
     bordercolor="#666666"
     borderopacity="1.0"
     inkscape:showpageshadow="2"
     inkscape:pageopacity="0.0"
     inkscape:pagecheckerboard="0"
     inkscape:deskcolor="#d1d1d1"
     inkscape:document-units="mm"
     inkscape:zoom="12.518"
     inkscape:cx="29.996804"
     inkscape:cy="21.249401"
     inkscape:window-width="1776"
     inkscape:window-height="1057"
     inkscape:window-x="1473"
     inkscape:window-y="99"
     inkscape:window-maximized="0"
     inkscape:current-layer="svg1319" />
  <defs
     id="defs1313">
    <linearGradient
       id="linearGradient2074-3">
      <stop
         style="stop-color:#000000;stop-opacity:1"
         offset="0"
         id="stop2070" />
      <stop
         style="stop-color:#143c61;stop-opacity:1"
         offset="1"
         id="stop2072" />
    </linearGradient>
    <linearGradient
       id="linearGradient2023-2">
      <stop
         style="stop-color:#008080;stop-opacity:1;"
         offset="0"
         id="stop2019" />
      <stop
         style="stop-color:#008080;stop-opacity:0;"
         offset="1"
         id="stop2021" />
    </linearGradient>
    <clipPath
       clipPathUnits="userSpaceOnUse"
       id="clipPath1255">
      <path
         id="lpe_path-effect1259"
         style="fill:#999999;stroke:none;stroke-width:0.499999;stroke-linecap:butt;stroke-linejoin:miter;stroke-miterlimit:4;stroke-dasharray:none;stroke-opacity:1"
         class="powerclip"
         d="m 487.03921,146.55346 h 44.48671 v 45.81021 h -44.48671 z m 35.49833,18.84201 -0.14089,10.94349 4.13581,2.36713 -0.008,-10.9796 c 0,0 -2.72814,-1.60416 -3.98692,-2.33102 z" />
    </clipPath>
    <clipPath
       clipPathUnits="userSpaceOnUse"
       id="clipPath1189">
      <g
         id="use1191"
         style="display:inline;fill:url(#linearGradient18);fill-opacity:1">
        <g
           id="g16"
           clip-path="none"
           style="fill:url(#linearGradient17);fill-opacity:1" />
      </g>
    </clipPath>
    <clipPath
       clipPathUnits="userSpaceOnUse"
       id="clipath_lpe_path-effect139">
      <path
         id="lpe_path-effect139"
         style="fill:none;stroke:#0000ff;stroke-width:0.264583px;stroke-linecap:butt;stroke-linejoin:miter;stroke-opacity:1"
         class="powerclip"
         d="m 355.41135,135.90064 h 27.28043 v 45.77712 h -27.28043 z m 8.78268,17.79546 v 16.30795 l 4.01426,-2.45874 v -11.69154 l 7.57692,4.76694 v -14.25064 z" />
    </clipPath>
    <clipPath
       clipPathUnits="userSpaceOnUse"
       id="clipPath102">
      <path
         id="lpe_path-effect106"
         style="fill:none;stroke:#0000ff;stroke-width:0.264583px;stroke-linecap:butt;stroke-linejoin:miter;stroke-opacity:1"
         class="powerclip"
         d="m 355.43065,135.90064 h 27.26134 v 45.77712 h -27.26134 z m 8.76338,17.79546 v 16.30795 l 4.01426,-2.45874 v -11.69154 l 7.57692,4.76694 v -14.25064 z" />
    </clipPath>
    <linearGradient
       xlink:href="#linearGradient2023-2"
       id="linearGradient1542"
       gradientUnits="userSpaceOnUse"
       x1="509.55173"
       y1="181.39059"
       x2="509.24548"
       y2="151.55345" />
    <clipPath
       clipPathUnits="userSpaceOnUse"
       id="clipPath15">
      <g
         id="use15" />
    </clipPath>
    <linearGradient
       xlink:href="#linearGradient2074-3"
       id="linearGradient17"
       gradientUnits="userSpaceOnUse"
       x1="492.03922"
       y1="169.45856"
       x2="526.52393"
       y2="169.45856" />
    <linearGradient
       xlink:href="#linearGradient2074-3"
       id="linearGradient18"
       gradientUnits="userSpaceOnUse"
       x1="492.03922"
       y1="169.45856"
       x2="526.52393"
       y2="169.45856" />
    <linearGradient
       xlink:href="#linearGradient2074-3"
       id="linearGradient42"
       gradientUnits="userSpaceOnUse"
       x1="492.03922"
       y1="169.45856"
       x2="526.52393"
       y2="169.45856" />
    <linearGradient
       xlink:href="#linearGradient2074-3"
       id="linearGradient43"
       gradientUnits="userSpaceOnUse"
       x1="492.03922"
       y1="169.45856"
       x2="526.52393"
       y2="169.45856" />
  </defs>
  <metadata
     id="metadata1316">
    <rdf:RDF>
      <cc:Work
         rdf:about="">
        <dc:format>image/svg+xml</dc:format>
        <dc:type
           rdf:resource="http://purl.org/dc/dcmitype/StillImage" />
      </cc:Work>
    </rdf:RDF>
  </metadata>
  <g
     id="use25"
     clip-path="none"
     style="fill:#000000"
     transform="scale(1.0024966,1)">
    <g
       id="g41"
       transform="translate(-116.94042,-95.280081)"
       style="display:inline;fill:#000000">
      <g
         id="g40"
         style="fill:#000000">
        <g
           id="g38"
           transform="translate(112.64443,92.105081)"
           style="display:inline;fill:#000000">
          <path
             id="path37"
             style="display:inline;opacity:1;mix-blend-mode:normal;fill:#000000;fill-opacity:1;stroke:none;stroke-width:0.49101;stroke-linecap:butt;stroke-linejoin:miter;stroke-miterlimit:4;stroke-dasharray:none;stroke-opacity:1"
             d="m 21.225525,13.538776 c -0.958605,-0.553919 -1.917215,-1.107838 -2.875819,-1.661757 0,-0.617961 0,-1.235917 0,-1.853878 0.959547,0.553997 1.919095,1.107989 2.878642,1.661987 -9.82e-4,0.617882 -0.002,1.235765 -0.0029,1.853648 z" />
          <path
             id="path38"
             style="display:inline;opacity:1;mix-blend-mode:normal;fill:#000000;fill-opacity:1;stroke:none;stroke-width:0.49101;stroke-linecap:butt;stroke-linejoin:miter;stroke-miterlimit:4;stroke-dasharray:none;stroke-opacity:1"
             d="m 21.225525,16.18461 c -0.958605,-0.553919 -1.917214,-1.107838 -2.875819,-1.661757 0,-0.617962 0,-1.235918 0,-1.853879 0.959547,0.553998 1.919095,1.107989 2.878642,1.661987 -9.82e-4,0.617883 -0.002,1.235766 -0.0029,1.853649 z" />
        </g>
        <path
           id="path39"
           clip-path="url(#clipath_lpe_path-effect139)"
           style="display:inline;opacity:1;mix-blend-mode:normal;fill:#000000;fill-opacity:1;stroke:none;stroke-width:0;stroke-linecap:butt;stroke-linejoin:miter;stroke-miterlimit:4;stroke-dasharray:none;stroke-opacity:1"
           d="m 377.69156,140.90064 v 25.28934 c -1.9235,-1.1541 -3.84709,-2.30741 -5.77059,-3.46151 -0.0369,2.29147 -0.0737,4.58314 -0.11051,6.87461 -3.79682,2.35838 -7.5928,4.71619 -11.38962,7.07457 -0.0171,-8.41323 4.7e-4,-16.82664 0.009,-25.23987 z m -11.37384,12.65677 c -1.95423,1.12828 -3.90792,2.2564 -5.86215,3.38468 0.002,1.23166 0.003,2.4635 0.005,3.69516 -0.002,0.001 -0.003,0.002 -0.005,0.003 0.002,1.2807 0.004,2.56179 0.005,3.84249 -0.002,0.001 -0.004,0.002 -0.005,0.003 0.002,1.25836 0.004,2.51678 0.006,3.77514 1.95225,-1.12809 3.90358,-2.25659 5.85583,-3.38468 v -3.77514 c -0.0217,0.0125 -0.0425,0.0243 -0.0642,0.0368 0.0217,-0.0145 0.0426,-0.0286 0.0642,-0.0432 v -3.76251 -0.62515 z"
           transform="matrix(-0.49101047,0,0,0.49101047,310.83951,26.096391)" />
        <path
           id="path40"
           clip-path="url(#clipPath102)"
           style="display:inline;opacity:1;mix-blend-mode:normal;fill:#000000;fill-opacity:1;stroke:none;stroke-width:0.264583px;stroke-linecap:butt;stroke-linejoin:miter;stroke-opacity:1"
           d="m 360.43124,151.44124 c 0.0165,4.6237 -0.0124,9.26306 0.007,13.88948 0.0157,3.78853 -0.0171,7.56633 -0.004,11.35262 3.8,-2.36 7.68559,-4.72334 11.48559,-7.08334 v -6.87 c 1.92,1.15 3.85,2.31 5.77,3.46 V 140.9 c -5.75,3.51 -11.50876,7.02124 -17.25876,10.54124 z"
           transform="matrix(0.49101047,0,0,0.49101047,-60.034799,26.112642)"
           sodipodi:nodetypes="cscccccc" />
      </g>
    </g>
  </g>
</svg>
