<?xml version="1.0" encoding="UTF-8" standalone="no"?>
<!-- Created with Inkscape (http://www.inkscape.org/) -->

<svg
   width="218.86749"
   height="224"
   viewBox="0 0 57.90869 59.266666"
   version="1.1"
   id="svg1"
   inkscape:version="1.4.2 (ebf0e940, 2025-05-08)"
   sodipodi:docname="omex_logo_solo_gradient_bg_wText.svg"
   xml:space="preserve"
   xmlns:inkscape="http://www.inkscape.org/namespaces/inkscape"
   xmlns:sodipodi="http://sodipodi.sourceforge.net/DTD/sodipodi-0.dtd"
   xmlns:xlink="http://www.w3.org/1999/xlink"
   xmlns="http://www.w3.org/2000/svg"
   xmlns:svg="http://www.w3.org/2000/svg"><sodipodi:namedview
     id="namedview1"
     pagecolor="#ffffff"
     bordercolor="#666666"
     borderopacity="1.0"
     inkscape:showpageshadow="2"
     inkscape:pageopacity="0.0"
     inkscape:pagecheckerboard="0"
     inkscape:deskcolor="#d1d1d1"
     inkscape:document-units="mm"
     inkscape:zoom="3.3177184"
     inkscape:cx="114.83796"
     inkscape:cy="105.49419"
     inkscape:window-width="2800"
     inkscape:window-height="1239"
     inkscape:window-x="1966"
     inkscape:window-y="49"
     inkscape:window-maximized="0"
     inkscape:current-layer="layer1"
     showgrid="false"><inkscape:grid
       id="grid5"
       units="mm"
       originx="11.813785"
       originy="0"
       spacingx="0.26458334"
       spacingy="0.26458335"
       empcolor="#0099e5"
       empopacity="0.30196078"
       color="#0099e5"
       opacity="0.14901961"
       empspacing="5"
       enabled="true"
       visible="false" /></sodipodi:namedview><defs
     id="defs1"><inkscape:path-effect
       effect="powerstroke"
       message=""
       id="path-effect6"
       is_visible="true"
       lpeversion="1.3"
       scale_width="1"
       interpolator_type="CentripetalCatmullRom"
       interpolator_beta="0.75"
       start_linecap_type="round"
       end_linecap_type="round"
       offset_points="10.9934,0.56024166"
       linejoin_type="spiro"
       miter_limit="4"
       not_jump="true"
       sort_points="true" /><inkscape:path-effect
       effect="simplify"
       id="path-effect5"
       is_visible="true"
       lpeversion="1.3"
       threshold="0.012"
       steps="1"
       smooth_angles="0"
       helper_size="0"
       simplify_individual_paths="false"
       simplify_just_coalesce="false"
       step="1" /><inkscape:path-effect
       effect="powerstroke"
       message=""
       id="path-effect4"
       is_visible="true"
       lpeversion="1.3"
       scale_width="1"
       interpolator_type="CentripetalCatmullRom"
       interpolator_beta="0.75"
       start_linecap_type="round"
       end_linecap_type="round"
       offset_points="2.9478188,0.56024166"
       linejoin_type="spiro"
       miter_limit="4"
       not_jump="true"
       sort_points="true" /><inkscape:path-effect
       effect="simplify"
       id="path-effect3"
       is_visible="true"
       lpeversion="1.3"
       threshold="0.012"
       steps="1"
       smooth_angles="0"
       helper_size="0"
       simplify_individual_paths="false"
       simplify_just_coalesce="false"
       step="1" /><rect
       x="-45.000004"
       y="305"
       width="160.00002"
       height="40"
       id="rect2" /><rect
       x="-55.000004"
       y="150"
       width="250.03001"
       height="73.389122"
       id="rect1" /><linearGradient
       id="linearGradient3"
       inkscape:collect="always"><stop
         style="stop-color:#c4e1ec;stop-opacity:1;"
         offset="0"
         id="stop3" /><stop
         style="stop-color:#c4e1ec;stop-opacity:0.99196786;"
         offset="0.56106871"
         id="stop5" /><stop
         style="stop-color:#c4e1ec;stop-opacity:0.03212851;"
         offset="1"
         id="stop4" /></linearGradient><linearGradient
       id="linearGradient1"
       inkscape:collect="always"><stop
         style="stop-color:#143c61;stop-opacity:1;"
         offset="0.617737"
         id="stop1" /><stop
         style="stop-color:#000000;stop-opacity:1;"
         offset="0.92660552"
         id="stop2" /></linearGradient><linearGradient
       inkscape:collect="always"
       xlink:href="#linearGradient1"
       id="linearGradient2"
       x1="101.27806"
       y1="80.491714"
       x2="101.27806"
       y2="114.77284"
       gradientUnits="userSpaceOnUse" /><radialGradient
       inkscape:collect="always"
       xlink:href="#linearGradient3"
       id="radialGradient4"
       cx="101.27806"
       cy="97.632278"
       fx="101.27806"
       fy="97.632278"
       r="12.221098"
       gradientUnits="userSpaceOnUse"
       gradientTransform="matrix(1.388864,0,0,1.0912738,-39.5505,-4.5834078)" /><rect
       x="-55.000004"
       y="150"
       width="250.03001"
       height="73.389122"
       id="rect3" /></defs><g
     inkscape:label="Layer 1"
     inkscape:groupmode="layer"
     id="layer1"
     transform="translate(-72.323715,-79.639581)"><path
       id="path2"
       style="fill:url(#radialGradient4);stroke-width:0.615554;stroke-linecap:round;stroke-linejoin:round;paint-order:fill markers stroke"
       d="m 118.08439,101.96007 a 16.973442,13.336563 0 0 1 -16.97345,13.33657 16.973442,13.336563 0 0 1 -16.97344,-13.33657 16.973442,13.336563 0 0 1 16.97344,-13.33655 16.973442,13.336563 0 0 1 16.97345,13.33655 z" /><path
       id="path9"
       style="fill:url(#linearGradient2);stroke:none;stroke-width:0.264583px;stroke-linecap:butt;stroke-linejoin:miter;stroke-opacity:1"
       d="M 101.27806,79.639581 84.1375,90.396547 v 25.228423 l 11.29854,-6.9262 v -7.15873 l 5.84202,3.37343 5.84202,-3.37343 v 7.15873 l 11.29854,6.9262 v -7.81865 l -3.67575,-2.18746 v 3.3507 l -4.0628,-2.55385 V 94.807647 l -7.62279,4.72063 V 85.056821 l 11.68559,7.467761 v 0.606682 l 3.67575,2.276346 v -5.011063 z m -1.77922,5.41724 v 14.471456 l -7.62279,-4.72063 v 11.608063 l -4.0628,2.55385 V 92.524582 Z m 13.09894,8.826438 v 3.439583 l 5.82084,3.704148 v -3.704148 z m 0,5.363911 v 3.43957 l 5.82084,3.46452 v -3.46452 z"
       sodipodi:nodetypes="cccccccccccccccccccccccccccccccccccccc" /><path
       style="font-weight:bold;font-size:64px;line-height:1.25;font-family:Sans;-inkscape-font-specification:'Sans, Bold';text-align:center;letter-spacing:5.06px;text-anchor:middle;white-space:pre;fill:#143c61"
       d="m 9.7840235,185.13914 q 0,11.125 -6.375,17.6875 -6.375,6.53125 -17.6249995,6.53125 -11.21875,0 -17.59375,-6.53125 -6.375,-6.5625 -6.375,-17.6875 0,-11.21875 6.375,-17.71875 6.375,-6.53125 17.59375,-6.53125 11.1874995,0 17.5937495,6.53125 6.40625,6.5 6.40625,17.71875 z m -15.90625,11.78125 q 1.75,-2.125 2.59375,-5 0.84375,-2.90625 0.84375,-6.8125 0,-4.1875 -0.96875,-7.125 -0.96875,-2.9375 -2.53125,-4.75 -1.59375,-1.875 -3.6875,-2.71875 -2.0624995,-0.84375 -4.3124995,-0.84375 -2.28125,0 -4.3125,0.8125 -2,0.8125 -3.6875,2.6875 -1.5625,1.75 -2.5625,4.84375 -0.96875,3.0625 -0.96875,7.125 0,4.15625 0.9375,7.09375 0.96875,2.90625 2.53125,4.75 1.5625,1.84375 3.65625,2.71875 2.09375,0.875 4.40625,0.875 2.3125,0 4.4062495,-0.875 2.09375,-0.90625 3.65625,-2.78125 z m 78.9037515,11.46875 h -11.9375 v -31.15625 l -8.625,20.21875 h -8.28125 l -8.625,-20.21875 v 31.15625 h -11.3125 v -46.53125 h 13.9375 l 10.46875,23.34375 10.4375,-23.34375 h 13.9375 z m 50.591255,0 H 89.716526 v -46.53125 h 33.656254 v 9 h -21.71875 v 8.03125 h 20.15625 v 9 h -20.15625 v 11.5 h 21.71875 z m 57.30999,0 h -13.875 l -10.03125,-15.3125 -10.21875,15.3125 h -13.25 l 16.5,-23.4375 -16.15625,-23.09375 h 13.84375 l 9.6875,14.5 9.96875,-14.5 h 13.28125 l -16.25,22.625 z"
       id="text1"
       transform="matrix(0.26458333,0,0,0.26458333,82.426757,76.890789)"
       aria-label="OMEX" /><text
       xml:space="preserve"
       transform="matrix(0.26458333,0,0,0.26458333,84.1375,79.639581)"
       id="text2"
       style="font-weight:600;font-size:40px;line-height:1.25;font-family:'Gill Sans';-inkscape-font-specification:'Gill Sans, Semi-Bold';text-align:center;white-space:pre;shape-inside:url(#rect2);display:inline" /><path
       style="font-weight:bold;font-size:24px;line-height:1.25;font-family:Sans;-inkscape-font-specification:'Sans, Bold';text-align:center;letter-spacing:0.42px;text-anchor:middle;white-space:pre;fill:#999999"
       d="m -30.83832,185.84468 q -1.945313,0 -3.597656,-0.57422 -1.640625,-0.57422 -2.824219,-1.71094 -1.183594,-1.13672 -1.839844,-2.83594 -0.644531,-1.69922 -0.644531,-3.92578 0,-2.07422 0.621094,-3.76172 0.621093,-1.6875 1.804687,-2.89453 1.136719,-1.16015 2.8125,-1.79297 1.6875,-0.63281 3.679688,-0.63281 1.101562,0 1.980468,0.12891 0.890625,0.11718 1.640625,0.3164 0.785157,0.22266 1.417969,0.50391 0.644531,0.26953 1.125,0.50391 v 4.23046 h -0.515625 q -0.328125,-0.28125 -0.832031,-0.66796 -0.492188,-0.38672 -1.125,-0.76172 -0.644531,-0.375 -1.394531,-0.63282 -0.75,-0.25781 -1.605469,-0.25781 -0.949219,0 -1.804688,0.30469 -0.855468,0.29297 -1.582031,0.98437 -0.691406,0.66797 -1.125,1.76954 -0.421875,1.10156 -0.421875,2.67187 0,1.64063 0.457031,2.74219 0.46875,1.10156 1.171875,1.73437 0.714844,0.64453 1.59375,0.92578 0.878907,0.26954 1.734375,0.26954 0.820313,0 1.617188,-0.2461 0.808594,-0.24609 1.488281,-0.66797 0.574219,-0.33984 1.066406,-0.72656 0.492188,-0.38672 0.808594,-0.66797 h 0.46875 v 4.17188 q -0.65625,0.29297 -1.253906,0.55078 -0.597656,0.25781 -1.253906,0.44531 -0.855469,0.24609 -1.605469,0.375 -0.75,0.12891 -2.0625,0.12891 z m 26.8692186,-9.0586 q 0,4.17188 -2.390625,6.63282 -2.390625,2.44921 -6.6093746,2.44921 -4.207032,0 -6.597657,-2.44921 -2.390625,-2.46094 -2.390625,-6.63282 0,-4.20703 2.390625,-6.64453 2.390625,-2.44922 6.597657,-2.44922 4.1953121,0 6.5976558,2.44922 2.4023438,2.4375 2.4023438,6.64453 z m -5.9648438,4.41797 q 0.65625,-0.79687 0.9726563,-1.875 0.3164062,-1.08984 0.3164062,-2.55469 0,-1.57031 -0.3632812,-2.67187 -0.3632813,-1.10156 -0.9492188,-1.78125 -0.5976563,-0.70313 -1.3828123,-1.01953 -0.773438,-0.31641 -1.617188,-0.31641 -0.855468,0 -1.617187,0.30469 -0.75,0.30469 -1.382813,1.00781 -0.585937,0.65625 -0.960937,1.81641 -0.363281,1.14844 -0.363281,2.67187 0,1.5586 0.351562,2.66016 0.363281,1.08984 0.949219,1.78125 0.585937,0.69141 1.371094,1.01953 0.785156,0.32813 1.652343,0.32813 0.867188,0 1.652344,-0.32813 0.785156,-0.33984 1.3710938,-1.04297 z M 15.75168,185.50483 H 11.415742 L 4.0094924,173.52827 v 11.97656 H -0.11550759 V 168.05561 H 5.2633987 l 6.3632813,9.9961 v -9.9961 h 4.125 z m 18.841873,-5.48437 q 0,2.57812 -2.191406,4.19531 -2.179688,1.60547 -5.929688,1.60547 -2.167968,0 -3.785156,-0.375 -1.605469,-0.38672 -3.011719,-0.97266 v -4.18359 h 0.492188 q 1.394531,1.11328 3.117187,1.71094 1.734375,0.59765 3.328125,0.59765 0.410157,0 1.078125,-0.0703 0.667969,-0.0703 1.089844,-0.23437 0.515625,-0.21094 0.84375,-0.52735 0.339844,-0.3164 0.339844,-0.9375 0,-0.57422 -0.492188,-0.98437 -0.480468,-0.42188 -1.417968,-0.64453 -0.984375,-0.23438 -2.085938,-0.4336 -1.089844,-0.21094 -2.050781,-0.52734 -2.203125,-0.71485 -3.175781,-1.9336 -0.960938,-1.23046 -0.960938,-3.04687 0,-2.4375 2.179688,-3.97266 2.191406,-1.54687 5.625,-1.54687 1.722656,0 3.398437,0.33984 1.6875,0.32813 2.917969,0.83203 v 4.01953 h -0.480469 q -1.054687,-0.84375 -2.589844,-1.40625 -1.523437,-0.57421 -3.117187,-0.57421 -0.5625,0 -1.125,0.082 -0.550781,0.0703 -1.066406,0.28125 -0.457032,0.17578 -0.785157,0.53906 -0.328125,0.35156 -0.328125,0.80859 0,0.69141 0.527344,1.06641 0.527344,0.36328 1.992188,0.66797 0.960937,0.19922 1.839843,0.38672 0.890625,0.1875 1.910157,0.51562 2.003906,0.65625 2.953125,1.79297 0.960937,1.125 0.960937,2.92969 z m 17.154377,-8.58985 h -5.449219 v 14.07422 h -4.5 v -14.07422 h -5.449218 v -3.375 H 51.74793 Z m 12.912186,1.96875 q 0,-0.65625 -0.269532,-1.125 -0.269531,-0.46875 -0.925781,-0.73828 -0.457031,-0.1875 -1.066406,-0.22265 -0.609375,-0.0469 -1.417969,-0.0469 h -1.628906 v 4.69922 h 1.382812 q 1.078125,0 1.804688,-0.10547 0.726562,-0.10547 1.21875,-0.48047 0.46875,-0.36328 0.679687,-0.79687 0.222657,-0.44531 0.222657,-1.1836 z m 7.019531,12.10547 h -5.496094 l -4.757812,-6.39843 h -2.074219 v 6.39843 h -4.476563 v -17.44922 h 7.546875 q 1.546875,0 2.660157,0.17579 1.113281,0.17578 2.085937,0.76171 0.984375,0.58594 1.558594,1.52344 0.585937,0.92578 0.585937,2.33203 0,1.9336 -0.902343,3.15235 -0.890625,1.21875 -2.554688,2.02734 z m 17.669998,-6.3164 q 0,3.23437 -1.96875,4.95703 -1.96875,1.72265 -5.800781,1.72265 -3.832031,0 -5.800781,-1.72265 -1.957032,-1.72266 -1.957032,-4.94531 v -11.14454 h 4.523438 v 10.88672 q 0,1.81641 0.761719,2.70703 0.761718,0.89063 2.472656,0.89063 1.6875,0 2.460937,-0.85547 0.785157,-0.85547 0.785157,-2.74219 v -10.88672 h 4.523437 z m 12.513755,6.65625 q -1.945312,0 -3.597655,-0.57422 -1.640625,-0.57422 -2.824219,-1.71094 -1.183594,-1.13672 -1.839844,-2.83594 -0.644531,-1.69922 -0.644531,-3.92578 0,-2.07422 0.621094,-3.76172 0.621093,-1.6875 1.804687,-2.89453 1.136719,-1.16015 2.8125,-1.79297 1.6875,-0.63281 3.679688,-0.63281 1.10156,0 1.98047,0.12891 0.89062,0.11718 1.64062,0.3164 0.78516,0.22266 1.41797,0.50391 0.64453,0.26953 1.125,0.50391 v 4.23046 h -0.51562 q -0.32813,-0.28125 -0.83203,-0.66796 -0.49219,-0.38672 -1.125,-0.76172 -0.64454,-0.375 -1.39454,-0.63282 -0.75,-0.25781 -1.60546,-0.25781 -0.94922,0 -1.80469,0.30469 -0.85547,0.29297 -1.582033,0.98437 -0.691406,0.66797 -1.125,1.76954 -0.421875,1.10156 -0.421875,2.67187 0,1.64063 0.457031,2.74219 0.46875,1.10156 1.171875,1.73437 0.714844,0.64453 1.593752,0.92578 0.8789,0.26954 1.73437,0.26954 0.82032,0 1.61719,-0.2461 0.80859,-0.24609 1.48828,-0.66797 0.57422,-0.33984 1.06641,-0.72656 0.49219,-0.38672 0.80859,-0.66797 h 0.46875 v 4.17188 q -0.65625,0.29297 -1.2539,0.55078 -0.59766,0.25781 -1.25391,0.44531 -0.85547,0.24609 -1.60547,0.375 -0.75,0.12891 -2.0625,0.12891 z m 23.55281,-14.41407 h -5.44922 v 14.07422 h -4.5 v -14.07422 h -5.44922 v -3.375 h 15.39844 z m 12.56062,14.07422 h -10.21875 v -3.09375 h 2.85938 v -11.26172 h -2.85938 v -3.09375 h 10.21875 v 3.09375 h -2.85937 v 11.26172 h 2.85937 z m 21.05672,-8.71875 q 0,4.17188 -2.39062,6.63282 -2.39063,2.44921 -6.60938,2.44921 -4.20703,0 -6.59765,-2.44921 -2.39063,-2.46094 -2.39063,-6.63282 0,-4.20703 2.39063,-6.64453 2.39062,-2.44922 6.59765,-2.44922 4.19531,0 6.59766,2.44922 2.40234,2.4375 2.40234,6.64453 z m -5.96484,4.41797 q 0.65625,-0.79687 0.97265,-1.875 0.31641,-1.08984 0.31641,-2.55469 0,-1.57031 -0.36328,-2.67187 -0.36328,-1.10156 -0.94922,-1.78125 -0.59766,-0.70313 -1.38281,-1.01953 -0.77344,-0.31641 -1.61719,-0.31641 -0.85547,0 -1.61719,0.30469 -0.75,0.30469 -1.38281,1.00781 -0.58594,0.65625 -0.96094,1.81641 -0.36328,1.14844 -0.36328,2.67187 0,1.5586 0.35156,2.66016 0.36329,1.08984 0.94922,1.78125 0.58594,0.69141 1.3711,1.01953 0.78515,0.32813 1.65234,0.32813 0.86719,0 1.65234,-0.32813 0.78516,-0.33984 1.3711,-1.04297 z m 25.68562,4.30078 h -4.33594 l -7.40625,-11.97656 v 11.97656 h -4.125 v -17.44922 h 5.37891 l 6.36328,9.9961 v -9.9961 h 4.125 z"
       id="text3"
       transform="matrix(0.26458333,0,0,0.26458333,82.888227,89.728643)"
       aria-label="CONSTRUCTION" /></g></svg>
